<?xml version="1.0" standalone="no"?>
<!DOCTYPE svg PUBLIC "-//W3C//DTD SVG 20010904//EN"
 "http://www.w3.org/TR/2001/REC-SVG-20010904/DTD/svg10.dtd">
<svg version="1.0" xmlns="http://www.w3.org/2000/svg"
 width="832.000000pt" height="832.000000pt" viewBox="0 0 832.000000 832.000000"
 preserveAspectRatio="xMidYMid meet">
<metadata>
Created by potrace 1.11, written by Peter Selinger 2001-2013
</metadata>
<g transform="translate(0.000000,832.000000) scale(0.100000,-0.100000)"
fill="#000000" stroke="none">
<path d="M3480 7300 c-58 -55 -161 -153 -229 -218 -150 -142 -186 -176 -370
-351 -79 -75 -161 -152 -181 -171 -33 -31 -303 -288 -400 -380 -20 -19 -101
-96 -180 -170 -78 -74 -153 -145 -165 -158 l-22 -24 61 -62 c34 -35 142 -148
241 -251 99 -104 200 -210 225 -235 25 -26 104 -109 175 -184 72 -76 164 -173
205 -216 66 -68 319 -333 450 -471 51 -54 327 -342 410 -428 50 -52 366 -382
433 -452 15 -16 30 -29 33 -29 3 0 44 37 91 83 48 45 117 111 154 147 37 36
140 135 229 220 90 85 195 187 235 225 40 39 143 138 230 220 87 83 185 177
220 210 34 33 140 134 234 225 95 91 212 203 261 250 100 96 340 326 433 414
34 32 102 97 150 143 l88 85 -50 51 c-27 29 -62 66 -77 82 -26 28 -198 214
-274 295 -19 20 -84 90 -145 155 -60 65 -121 131 -135 145 -14 15 -72 78 -130
140 -58 63 -125 135 -150 161 -25 26 -76 80 -112 121 -37 40 -93 100 -125 134
-55 57 -214 227 -313 334 -44 48 -47 49 -100 49 -30 -1 -334 2 -675 5 l-620 6
-105 -100z m895 -726 c77 -81 163 -170 190 -199 96 -100 291 -304 425 -445 74
-79 140 -148 146 -154 9 -8 -17 -39 -100 -119 -127 -124 -658 -642 -752 -733
l-62 -62 -49 48 c-26 26 -118 121 -203 211 -85 89 -177 186 -205 214 -56 59
-345 361 -424 444 l-52 54 73 69 c40 38 129 121 197 186 69 64 163 153 210
198 48 44 102 95 121 113 139 131 287 270 309 293 14 15 28 27 31 28 3 0 69
-66 145 -146z"/>
<path d="M1640 5534 c-24 -21 -51 -46 -60 -54 -24 -22 -206 -189 -269 -246
-29 -27 -68 -62 -85 -78 -17 -15 -71 -65 -119 -110 -49 -44 -104 -94 -121
-111 -18 -16 -70 -64 -115 -105 -46 -41 -105 -95 -131 -120 -47 -44 -194 -178
-234 -213 -11 -10 -48 -44 -81 -75 -56 -52 -205 -189 -274 -252 -15 -14 -55
-51 -89 -82 l-61 -57 -1 -683 0 -683 93 -96 c50 -53 130 -137 177 -186 47 -50
150 -159 230 -243 80 -84 167 -176 193 -204 27 -28 111 -116 187 -196 75 -80
152 -161 170 -180 28 -30 122 -129 425 -448 39 -40 72 -78 73 -83 8 -20 30 -6
103 64 42 39 147 140 233 222 87 83 186 177 220 210 35 33 136 130 226 215 90
85 189 180 220 210 86 82 388 371 445 425 107 102 436 417 705 675 100 96 186
177 191 178 14 6 10 26 -8 43 -10 9 -90 91 -178 183 -88 93 -191 201 -230 241
-38 40 -140 146 -225 235 -85 89 -189 197 -230 240 -41 43 -140 146 -220 230
-80 84 -183 192 -230 240 -85 88 -355 370 -440 460 -25 26 -127 132 -226 236
-100 104 -191 200 -201 213 l-20 24 -43 -39z m282 -1606 c158 -161 360 -368
450 -460 156 -159 164 -169 148 -185 -10 -10 -100 -97 -200 -193 -101 -96
-207 -197 -235 -225 -29 -27 -130 -124 -225 -215 -95 -91 -199 -191 -232 -222
l-60 -58 -36 39 c-82 85 -425 449 -482 511 -18 19 -81 87 -141 150 -59 63
-135 144 -168 180 l-61 65 93 90 c117 113 270 259 762 729 50 47 93 86 96 86
3 0 134 -132 291 -292z"/>
<path d="M6638 5361 c-155 -150 -231 -222 -398 -381 -84 -80 -188 -179 -231
-220 -43 -41 -139 -133 -215 -205 -75 -71 -167 -159 -204 -195 -37 -36 -131
-126 -210 -200 -78 -74 -178 -170 -223 -213 -45 -44 -131 -125 -191 -180 -59
-56 -129 -122 -155 -147 -72 -68 -286 -269 -342 -320 -27 -25 -49 -50 -49 -56
0 -6 10 -19 23 -31 12 -11 81 -82 152 -158 72 -75 166 -175 210 -221 44 -46
139 -145 210 -220 72 -76 150 -158 175 -184 25 -26 110 -115 190 -199 80 -85
172 -182 205 -216 33 -34 128 -134 210 -221 83 -86 175 -183 205 -214 30 -32
120 -126 200 -210 80 -84 179 -187 220 -230 41 -43 108 -112 148 -154 l72 -76
88 84 c48 46 115 110 149 142 179 171 352 336 408 389 34 33 121 116 194 185
164 156 214 204 432 412 96 91 190 181 209 199 19 18 72 68 118 111 l82 79 0
652 0 652 -96 100 c-53 55 -150 158 -217 229 -67 71 -149 157 -182 191 -74 78
-177 186 -365 385 -80 84 -165 175 -190 200 -25 26 -106 111 -180 190 -74 78
-161 170 -193 204 -32 33 -76 80 -98 104 -22 23 -44 42 -49 42 -5 0 -56 -45
-112 -99z m275 -1413 c87 -90 288 -295 445 -455 158 -161 288 -299 290 -306 1
-7 -54 -66 -123 -132 -140 -133 -182 -173 -372 -355 -337 -323 -455 -435 -462
-438 -7 -2 -124 117 -754 761 -86 88 -153 163 -148 166 8 5 210 198 420 401
37 36 159 153 270 260 112 107 217 209 235 227 17 18 33 32 35 33 2 0 76 -73
164 -162z"/>
</g>
</svg>
