<?xml version="1.0" standalone="no"?>
<!DOCTYPE svg PUBLIC "-//W3C//DTD SVG 20010904//EN"
 "http://www.w3.org/TR/2001/REC-SVG-20010904/DTD/svg10.dtd">
<svg version="1.0" xmlns="http://www.w3.org/2000/svg"
 width="700.000000pt" height="700.000000pt" viewBox="0 0 700.000000 700.000000"
 preserveAspectRatio="xMidYMid meet">
<metadata>
Created by potrace 1.11, written by Peter Selinger 2001-2013
</metadata>
<g transform="translate(0.000000,700.000000) scale(0.100000,-0.100000)"
fill="#000000" stroke="none">
<path d="M2273 5613 c-354 -354 -643 -646 -643 -650 0 -5 420 -428 933 -940
l932 -933 935 935 934 936 -646 646 -646 646 -578 1 -578 1 -643 -642z m1572
-292 c192 -192 351 -353 352 -358 2 -6 -639 -656 -701 -711 -1 -1 -163 158
-359 354 l-357 357 353 353 c193 194 355 353 358 353 3 1 162 -156 354 -348z"/>
<path d="M708 4047 l-644 -644 -1 -581 0 -580 647 -646 646 -646 933 935 934
935 -19 21 c-26 30 -1818 1822 -1837 1837 -13 11 -112 -84 -659 -631z m1003
-866 c192 -192 349 -353 349 -358 0 -4 -159 -167 -352 -360 l-353 -353 -357
357 -356 356 351 353 c194 194 356 353 360 353 5 1 165 -156 358 -348z"/>
<path d="M4693 3757 l-932 -933 929 -929 c511 -512 934 -931 939 -933 12 -4
1268 1251 1285 1282 8 16 11 186 10 590 l-1 568 -644 644 c-354 354 -646 644
-649 644 -3 0 -424 -420 -937 -933z m1292 -577 c193 -193 352 -353 354 -355 2
-3 -156 -165 -352 -360 l-355 -355 -357 357 -356 357 353 353 c194 194 355
353 358 353 3 0 163 -158 355 -350z"/>
</g>
</svg>
