<?xml version="1.0" encoding="utf-8"?>
<!-- Generator: Adobe Illustrator 22.0.1, SVG Export Plug-In . SVG Version: 6.00 Build 0)  -->
<svg version="1.1" id="Layer_1" xmlns="http://www.w3.org/2000/svg" xmlns:xlink="http://www.w3.org/1999/xlink" x="0px" y="0px"
	 viewBox="0 0 1000 1000" style="enable-background:new 0 0 1000 1000;" xml:space="preserve">
<style type="text/css">
	.st0{display:none;}
	.st1{fill:#F8D71E;}
	.st2{fill:#F79322;}
	.st3{fill:#D17428;}
	.st4{fill:#00C0F2;}
	.st5{fill:#00A4D4;}
	.st6{fill:#038BB2;}
	.st7{fill:#8A8A8A;}
	.st8{fill:#636465;}
	.st9{fill:#353636;}
</style>
<g id="Layer_1_1_" class="st0">
	
		<image style="display:inline;overflow:visible;enable-background:new    ;" width="878" height="792" xlink:href="C463607BC28512DB.png"  transform="matrix(0.7937 -0.8086 0.8086 0.7937 -122.6705 584.621)">
	</image>
</g>
<g id="Layer_2_1_">
	<g>
		
			<rect x="9.5" y="150.5" transform="matrix(0.7071 -0.7071 0.7071 0.7071 -104.1497 66.8976)" class="st1" width="38.5" height="17.2"/>
		<polygon class="st2" points="75.6,178.8 63.4,191 24,151.7 48.4,151.7 		"/>
		<polygon class="st3" points="9,166.7 9,191 36.2,218.2 63.4,191 63.4,166.7 36.2,193.8 		"/>
	</g>
	<g>
		
			<rect x="114.5" y="189.9" transform="matrix(0.7071 -0.7071 0.7071 0.7071 -101.2352 152.6915)" class="st4" width="38.5" height="17.2"/>
		<polygon class="st5" points="86.8,178.8 99,166.7 138.4,206 114,206 		"/>
		<polygon class="st6" points="153.4,191 153.4,166.7 126.2,139.5 99,166.7 99,191 126.2,163.9 		"/>
	</g>
	<g>
		
			<rect x="92.3" y="107.1" transform="matrix(0.7071 -0.7071 0.7071 0.7071 -59.7881 108.3343)" class="st7" width="17.2" height="38.5"/>
		<polygon class="st8" points="81.2,173.2 69,161 108.4,121.7 108.4,146 		"/>
		<polygon class="st9" points="93.4,106.7 69,106.7 41.8,133.8 69,161 93.4,161 66.2,133.8 		"/>
	</g>
</g>
</svg>
