<svg id="Layer_1" data-name="Layer 1" xmlns="http://www.w3.org/2000/svg" viewBox="0 0 415.97 324.48"><defs><style>.cls-1{fill:#f7d61d;}.cls-2{fill:#ff9517;}.cls-3{fill:#d17200;}.cls-4{fill:#898989;}.cls-5{fill:#636363;}.cls-6{fill:#363636;}.cls-7{fill:#01bff3;}.cls-8{fill:#02a5d2;}.cls-9{fill:#008bb1;}</style></defs><title>logo</title><polygon class="cls-1" points="0.13 168.29 83.97 91.43 116.43 125.42 0 236.61 0.13 168.29"/><polygon class="cls-2" points="116.32 125.29 195.24 207.68 161.3 240.2 48.25 124.73 116.32 125.29"/><polygon class="cls-3" points="78.41 319.3 161.3 240.2 161.25 172.14 78.37 251.5 0.13 168.29 0 236.61 78.41 319.3"/><polygon class="cls-4" points="246.85 0.66 324.49 83.97 290.5 116.43 179.31 0 246.85 0.66"/><polygon class="cls-5" points="290.64 116.32 208.24 195.24 175.72 161.3 290.93 49.02 290.64 116.32"/><polygon class="cls-6" points="96.62 78.41 175.72 161.3 243.79 161.25 164.42 78.37 246.85 0.66 179.31 0 96.62 78.41"/><polygon class="cls-7" points="415.97 244.41 331.96 324.48 299.5 290.49 415.93 179.3 415.97 244.41"/><polygon class="cls-8" points="299.6 290.63 220.64 207.66 254.63 175.71 367.2 290.79 299.6 290.63"/><polygon class="cls-9" points="337.52 96.61 254.63 175.71 255.03 243.7 337.56 164.41 415.97 244.41 415.93 179.3 337.52 96.61"/></svg>