<svg xmlns="http://www.w3.org/2000/svg" viewBox="0 0 144.4 111.59"><defs><style>.a{fill:#f8d71e;}.b{fill:#f79322;}.c{fill:#d17428;}.d{fill:#00c0f2;}.e{fill:#00a4d4;}.f{fill:#038bb2;}.g{fill:#8a8a8a;}.h{fill:#636465;}.i{fill:#353636;}</style></defs><title>logo</title><rect class="a" x="9.45" y="150.55" width="38.45" height="17.24" transform="translate(-113.14 -39.75) rotate(-45)"/><polygon class="b" points="66.57 72.2 54.38 84.39 15 45.02 39.38 45.02 66.57 72.2"/><polygon class="c" points="0 60.02 0 84.39 27.2 111.58 54.38 84.39 54.38 60.02 27.2 87.2 0 60.02"/><rect class="d" x="114.47" y="189.93" width="38.45" height="17.24" transform="translate(-110.22 46.04) rotate(-45)"/><polygon class="e" points="77.82 72.2 90.01 60.02 129.39 99.4 105.02 99.4 77.82 72.2"/><polygon class="f" points="144.39 84.39 144.39 60.02 117.21 32.82 90.01 60.02 90.01 84.39 117.21 57.2 144.39 84.39"/><rect class="g" x="92.26" y="107.11" width="17.24" height="38.45" transform="translate(-68.78 1.69) rotate(-45)"/><polygon class="h" points="72.2 66.57 60.01 54.39 99.39 15.01 99.39 39.39 72.2 66.57"/><polygon class="i" points="84.4 0.01 60.01 0.01 32.81 27.19 60.01 54.39 84.4 54.39 57.2 27.19 84.4 0.01"/></svg>