<svg xmlns="http://www.w3.org/2000/svg" viewBox="0 0 760.41 587.44"><defs><style>.a{fill:#f8d71e;}.b{fill:#f79322;}.c{fill:#d17428;}.d{fill:#00c0f2;}.e{fill:#00a4d4;}.f{fill:#038bb2;}.g{fill:#8a8a8a;}.h{fill:#636465;}.i{fill:#353636;}</style></defs><title>logo</title><rect class="a" x="9.66" y="323.28" width="202.72" height="90.57" transform="translate(-235.42 93.97) rotate(-45)"/><polygon class="b" points="350.76 379.97 286.52 444.21 79.06 237.28 207.53 237.28 350.76 379.97"/><polygon class="c" points="0.07 316.26 0.07 444.21 143.29 587.44 286.52 444.21 286.52 316.26 143.29 458.96 0.07 316.26"/><rect class="d" x="562.64" y="530.78" width="202.72" height="90.57" transform="translate(-220.18 545.76) rotate(-45)"/><polygon class="e" points="409.73 379.97 473.97 316.26 681.43 523.2 552.95 523.2 409.73 379.97"/><polygon class="f" points="760.41 444.21 760.41 316.26 617.19 173.04 473.97 316.26 473.97 444.21 617.19 301.52 760.41 444.21"/><rect class="g" x="446.02" y="94.82" width="90.57" height="202.72" transform="translate(-2.14 312.38) rotate(-45)"/><polygon class="h" points="380.24 350.49 316 286.25 523.47 79.31 523.47 207.26 380.24 350.49"/><polygon class="i" points="444.48 0.33 316 0.33 172.78 143.03 316 286.25 444.48 286.25 301.26 143.03 444.48 0.33"/></svg>
