<?xml version="1.0" standalone="no"?>
<!DOCTYPE svg PUBLIC "-//W3C//DTD SVG 20010904//EN"
 "http://www.w3.org/TR/2001/REC-SVG-20010904/DTD/svg10.dtd">
<svg version="1.0" xmlns="http://www.w3.org/2000/svg"
 width="300.000000pt" height="300.000000pt" viewBox="0 0 300.000000 300.000000"
 preserveAspectRatio="xMidYMid meet">
<metadata>
Created by potrace 1.10, written by Peter Selinger 2001-2011
</metadata>
<g transform="translate(0.000000,300.000000) scale(0.100000,-0.100000)"
fill="#4d5fa8" stroke="none">
<path d="M1315 2864 c-77 -12 -188 -39 -265 -66 -451 -158 -779 -526 -892
-1002 -19 -78 -22 -120 -22 -296 0 -193 1 -212 28 -315 70 -274 178 -467 367
-656 649 -651 1732 -493 2179 317 179 323 214 733 94 1094 -65 195 -179 376
-334 530 -188 188 -403 307 -670 372 -67 16 -124 21 -270 23 -102 2 -198 1
-215 -1z m99 -596 c52 -37 82 -35 161 8 l65 36 32 -19 c18 -10 40 -32 50 -48
21 -37 38 -138 38 -231 l0 -71 108 -17 c119 -19 155 -38 106 -56 -44 -17 -120
-30 -183 -31 -31 -1 -67 -4 -81 -8 l-25 -8 28 -13 c32 -15 31 -12 12 -78 -17
-58 -44 -82 -91 -82 -37 0 -101 45 -110 78 -9 31 -36 27 -56 -7 -20 -36 -56
-60 -100 -67 -48 -8 -98 33 -98 81 0 19 -4 37 -10 40 -17 10 -11 20 21 34 16
7 28 15 25 18 -2 3 -55 9 -116 14 -134 11 -192 26 -188 48 3 15 47 26 181 45
l47 7 0 66 c0 143 34 252 88 285 30 18 42 15 96 -24z m-168 -700 c18 -58 94
-132 155 -149 108 -29 218 -9 286 54 36 33 91 114 84 125 -4 7 0 22 7 22 11 0
194 -138 215 -162 23 -28 21 -61 -7 -106 l-24 -38 50 -18 c88 -31 165 -119
202 -228 23 -70 27 -94 33 -190 l5 -88 -757 0 -758 0 6 98 c4 53 13 118 21
144 42 134 121 231 217 265 l48 17 -20 32 c-41 67 -19 117 87 189 33 22 61 42
64 45 14 15 56 39 64 36 5 -1 15 -23 22 -48z"/>
<path d="M1430 1813 c15 -6 31 -16 34 -22 9 -14 53 -14 61 -1 4 6 20 16 36 23
27 11 20 12 -64 12 -80 0 -90 -2 -67 -12z"/>
<path d="M1473 1237 c-28 -12 -36 -46 -17 -74 27 -43 94 -20 94 31 0 38 -40
60 -77 43z"/>
<path d="M1454 975 c-15 -23 -15 -27 0 -50 38 -57 116 -12 88 50 -9 19 -19 25
-42 25 -21 0 -34 -8 -46 -25z"/>
</g>
</svg>
